<svg xmlns="http://www.w3.org/2000/svg" xmlns:xlink="http://www.w3.org/1999/xlink" width="24" height="24" viewBox="0 0 24 24"><defs><path id="a" d="M36.99 16.21l.01.13v7.32l-.01.13-.01.05-.02.08-.01.05-.03.08-.02.05-.04.07-.03.04a.16.16 0 0 1-.04.07l-.03.04-.06.06-.04.04a.27.27 0 0 0-.06.05l-.04.03-.02.01-10.97 7.32a1.06 1.06 0 0 1-1.14 0l-10.97-7.32-.02-.01-.04-.03-.06-.05-.04-.04-.05-.06-.04-.04a.16.16 0 0 1-.04-.07l-.03-.04-.04-.07-.02-.05-.03-.08-.01-.05a.3.3 0 0 1-.02-.08l-.01-.05-.01-.13v-7.32l.01-.13.01-.05a.3.3 0 0 1 .02-.08l.01-.05.03-.08.02-.05.04-.07.03-.04a.16.16 0 0 1 .04-.07l.04-.04a.27.27 0 0 1 .05-.06l.04-.04a.27.27 0 0 0 .06-.05l.04-.03.02-.01 10.97-7.32c.34-.23.8-.23 1.14 0l10.97 7.32.02.01.04.03.06.05.04.04.06.06.03.04.04.07.03.04.04.07.02.05.03.08.01.05a.3.3 0 0 1 .02.08l.01.05zm-10.96-5.25v4.81l4.47 2.99 3.61-2.41zm-2.06 0l-8.08 5.39 3.61 2.41 4.47-2.99zm-8.91 7.31v3.46L17.64 20zm8.91 10.77v-4.81l-4.47-2.99-3.61 2.41zm1.03-6.6L28.65 20 25 17.56 21.35 20zm1.03 6.6l8.08-5.39-3.61-2.41-4.47 2.99zm8.91-7.31v-3.46L32.36 20z"/></defs><use fill="#fff" xlink:href="#a" transform="translate(-13 -8)"/></svg>